<svg width="60" height="12" viewBox="0 0 60 12" fill="none" xmlns="http://www.w3.org/2000/svg">
<path d="M42 8.635L45.09 10.5L44.27 6.985L47 4.62L43.405 4.315L42 1L40.595 4.315L37 4.62L39.73 6.985L38.91 10.5L42 8.635Z" fill="#333333"/>
<path d="M30 8.635L33.09 10.5L32.27 6.985L35 4.62L31.405 4.315L30 1L28.595 4.315L25 4.62L27.73 6.985L26.91 10.5L30 8.635Z" fill="#333333"/>
<path d="M18 8.635L21.09 10.5L20.27 6.985L23 4.62L19.405 4.315L18 1L16.595 4.315L13 4.62L15.73 6.985L14.91 10.5L18 8.635Z" fill="#333333"/>
<path d="M54 3.565L54.485 4.71L54.72 5.265L55.32 5.315L56.555 5.42L55.615 6.235L55.16 6.63L55.295 7.22L55.575 8.425L54.515 7.785L54 7.465L53.485 7.775L52.425 8.415L52.705 7.21L52.84 6.62L52.385 6.225L51.445 5.41L52.68 5.305L53.28 5.255L53.515 4.7L54 3.565V3.565ZM54 1L52.595 4.315L49 4.62L51.73 6.985L50.91 10.5L54 8.635L57.09 10.5L56.27 6.985L59 4.62L55.405 4.315L54 1Z" fill="#333333"/>
<path d="M6 8.635L9.09 10.5L8.27 6.985L11 4.62L7.405 4.315L6 1L4.595 4.315L1 4.62L3.73 6.985L2.91 10.5L6 8.635Z" fill="#333333"/>
</svg>
